<?xml version="1.0" standalone="no"?>
<!DOCTYPE svg PUBLIC "-//W3C//DTD SVG 20010904//EN"
 "http://www.w3.org/TR/2001/REC-SVG-20010904/DTD/svg10.dtd">
<svg version="1.0" xmlns="http://www.w3.org/2000/svg"
 width="750.000000pt" height="750.000000pt" viewBox="0 0 750.000000 750.000000"
 preserveAspectRatio="xMidYMid meet">
<metadata>
Created by potrace 1.14, written by Peter Selinger 2001-2017
</metadata>
<g transform="translate(0.000000,750.000000) scale(0.100000,-0.100000)"
fill="#000000" stroke="none">
<path d="M3445 7490 c-618 -52 -1194 -246 -1730 -581 -249 -156 -566 -424
-748 -632 -264 -302 -409 -512 -562 -817 -208 -412 -313 -748 -380 -1213 -23
-152 -25 -201 -25 -495 0 -293 3 -345 25 -502 78 -561 253 -1040 556 -1525
155 -248 423 -565 633 -749 301 -263 512 -408 816 -561 411 -207 733 -308
1215 -382 156 -24 196 -26 490 -26 295 -1 334 1 500 26 578 85 1045 255 1530
558 248 155 565 423 749 633 263 301 408 512 561 816 207 411 308 733 382
1215 24 156 26 196 26 490 1 295 -1 334 -26 500 -85 578 -256 1047 -558 1530
-156 249 -424 566 -632 748 -302 264 -512 409 -817 562 -412 207 -743 311
-1215 381 -139 21 -217 26 -430 29 -143 2 -305 0 -360 -5z m229 -3504 c62 -19
109 -56 142 -111 14 -25 29 -45 33 -45 4 0 13 11 19 24 18 40 73 96 116 118
58 30 176 36 246 13 70 -23 130 -84 161 -161 23 -57 24 -70 27 -381 l3 -323
-110 0 -110 0 -3 283 c-3 245 -5 286 -20 314 -28 51 -72 76 -133 76 -72 0
-113 -25 -145 -88 -25 -49 -25 -55 -28 -317 l-3 -268 -109 0 -109 0 -3 283
c-3 262 -4 284 -23 317 -29 48 -77 74 -136 73 -67 -1 -109 -28 -139 -88 -24
-49 -25 -55 -28 -317 l-4 -268 -109 0 -109 0 0 430 0 430 104 0 104 0 6 -31
c3 -17 6 -42 6 -55 0 -22 3 -21 38 18 73 81 196 110 316 74z"/>
</g>
</svg>
